<?xml version="1.0" encoding="iso-8859-1"?>
<!-- Generator: Adobe Illustrator 19.0.0, SVG Export Plug-In . SVG Version: 6.00 Build 0)  -->
<svg version="1.1" id="Capa_1" xmlns="http://www.w3.org/2000/svg" xmlns:xlink="http://www.w3.org/1999/xlink" x="0px" y="0px"
	 viewBox="0 0 511.999 511.999" style="enable-background:new 0 0 511.999 511.999;" xml:space="preserve">
<linearGradient id="SVGID_1_" gradientUnits="userSpaceOnUse" x1="256.0078" y1="513.9962" x2="256.0078" y2="1.9832" gradientTransform="matrix(1 0 0 -1 -0.0013 513.9822)">
	<stop  offset="0" style="stop-color:#2AF598"/>
	<stop  offset="1" style="stop-color:#009EFD"/>
</linearGradient>
<path style="fill:url(#SVGID_1_);" d="M192.001,163.998H232v39.999h-39.999V163.998z M271.999,203.996h39.999v-39.999h-39.999
	V203.996z M351.997,203.996h39.999v-39.999h-39.999V203.996z M448.805,369.423l19.222,30.631l-36.202-0.065
	c-0.121,0.001-0.249,0.001-0.381,0.001c-8.705,0-43.19-1.615-75.906-25.288c-8.069,33.644-26.998,60.933-55.632,79.796
	c-30.279,19.946-71.742,30.49-119.904,30.49c-13.664,0-26.074-0.694-37.628-2.113c-28.074,26.5-61.126,29.124-72.996,29.124
	c-0.458,0-0.885-0.004-1.278-0.011l-0.062-0.001H30.438l20.976-30.965c0.475-0.758,5.978-9.722,10.876-25.001
	C21.465,430.181,0.006,388.678,0.006,335.025c0-31.973,7.658-59.769,22.759-82.62c12.291-18.595,29.284-33.62,50.606-44.767
	c-0.899-8.065-1.367-16.376-1.367-24.933c0-31.141,5.972-59.145,17.749-83.237c11.247-23.004,27.77-42.489,49.116-57.91
	C176.499,14.372,229.45,0,291.999,0s115.5,14.372,153.13,41.56c21.344,15.422,37.869,34.906,49.116,57.91
	c11.777,24.09,17.749,52.096,17.749,83.237c0,66.631-27.166,117.825-78.794,149.035
	C440.138,355.206,448.703,369.258,448.805,369.423z M316.896,364.351c-7.847,0.424-16.118,0.639-24.897,0.639
	c-62.588,0-115.529-14.291-153.099-41.326c-21.357-15.369-37.891-34.807-49.14-57.772c-2.722-5.557-5.119-11.332-7.218-17.299
	c-28.241,18.54-42.536,47.529-42.536,86.434c0,44.037,18.329,75.407,54.478,93.238l14.073,6.941l-3.394,15.32
	c-1.001,4.521-2.104,8.778-3.261,12.761c6.118-3.414,12.345-8.153,18.008-14.731l7.369-8.559l11.135,1.891
	c12.295,2.088,25.898,3.103,41.589,3.103c40.318,0,74.171-8.263,97.9-23.894C298.261,407.685,311.327,388.644,316.896,364.351z
	 M471.994,182.707c0-124.168-112.773-142.708-179.995-142.708s-179.995,18.54-179.995,142.708
	c0,123.8,112.773,142.285,179.995,142.285c20.572,0,37.852-1.236,52.823-3.778l11.135-1.891l7.369,8.56
	c10.971,12.741,23.394,20.443,34.664,25.092c-2.708-7.934-5.343-16.973-7.559-26.974l-3.393-15.32l14.072-6.941
	C448.144,280.538,471.994,239.817,471.994,182.707z"/>
<g>
</g>
<g>
</g>
<g>
</g>
<g>
</g>
<g>
</g>
<g>
</g>
<g>
</g>
<g>
</g>
<g>
</g>
<g>
</g>
<g>
</g>
<g>
</g>
<g>
</g>
<g>
</g>
<g>
</g>
</svg>
