<svg id="Layer_2" height="512" viewBox="0 0 128 128" width="512" xmlns="http://www.w3.org/2000/svg" data-name="Layer 2"><path d="m1.75 79.667h124.5a0 0 0 0 1 0 0v3.333a6 6 0 0 1 -6 6h-112.5a6 6 0 0 1 -6-6v-3.333a0 0 0 0 1 0 0z" fill="#343c3f"/><path d="m126.25 79.667h-124.5l7.381-6.856a35.007 35.007 0 0 1 16.494-8.579l4.634-.992a72.083 72.083 0 0 0 32.322-16.186l9.225-8.054h5.344a9.608 9.608 0 0 1 9.6 10.008h26l1-2.1a13.839 13.839 0 0 1 12.5-7.908z" fill="#515a5e"/><g fill="#4695bc"><path d="m106.867 79.667h-40.25l10.008-12.667h40.25z"/><path d="m70.875 50.5-4.741-6.548-3.553 3.1a72.082 72.082 0 0 1 -18.544 11.748l-.011.011 5.6 4.817z"/></g></svg>